<svg width="40" height="36" viewBox="0 0 40 36" fill="none" xmlns="http://www.w3.org/2000/svg">
<path d="M35.0498 22.2222H14.6925L15.147 24.4444H33.7872C34.8567 24.4444 35.6494 25.4376 35.4124 26.4805L35.0292 28.1663C36.3272 28.7964 37.2222 30.1269 37.2222 31.6667C37.2222 33.8335 35.4501 35.5864 33.2761 35.5551C31.2051 35.5253 29.5018 33.8447 29.4459 31.7741C29.4153 30.6431 29.8685 29.6179 30.6128 28.8888H16.0539C16.7745 29.5948 17.2222 30.5782 17.2222 31.6667C17.2222 33.8759 15.38 35.6549 13.1479 35.5512C11.166 35.4592 9.5541 33.8578 9.44993 31.8765C9.36951 30.3463 10.1747 28.9976 11.3979 28.2941L6.51965 4.44444H1.66667C0.746181 4.44444 0 3.69826 0 2.77778V1.66667C0 0.74618 0.746181 0 1.66667 0H8.78674C9.57847 0 10.2609 0.557014 10.4196 1.33264L11.0561 4.44444H38.3326C39.4022 4.44444 40.1949 5.43757 39.9578 6.48049L36.675 20.9249C36.5026 21.6837 35.828 22.2222 35.0498 22.2222ZM28.3333 11.6667H25V8.88889C25 8.27521 24.5026 7.77778 23.8889 7.77778H22.7778C22.1641 7.77778 21.6667 8.27521 21.6667 8.88889V11.6667H18.3333C17.7197 11.6667 17.2222 12.1641 17.2222 12.7778V13.8889C17.2222 14.5026 17.7197 15 18.3333 15H21.6667V17.7778C21.6667 18.3915 22.1641 18.8889 22.7778 18.8889H23.8889C24.5026 18.8889 25 18.3915 25 17.7778V15H28.3333C28.947 15 29.4444 14.5026 29.4444 13.8889V12.7778C29.4444 12.1641 28.947 11.6667 28.3333 11.6667Z" fill="white"/>
</svg>
